<?xml version="1.0" encoding="utf-8"?>
<!-- Generator: Adobe Illustrator 22.1.0, SVG Export Plug-In . SVG Version: 6.00 Build 0)  -->
<svg version="1.1" id="Layer_1" xmlns="http://www.w3.org/2000/svg" xmlns:xlink="http://www.w3.org/1999/xlink" x="0px" y="0px"
	 viewBox="0 0 2301 500" style="enable-background:new 0 0 2301 500;" xml:space="preserve">
<style type="text/css">
	.st0{fill:#FFFFFF;}
	.st1{fill:none;}
	.st2{font-family:'ArialMT';}
	.st3{font-size:352px;}
	.st4{fill:#F68B4E;}
</style>
<title>exactly-icon</title>
<g id="Layer_2_1_">
	<path class="st0" d="M467.3,312.6c-2.4,2.4-14,13.7-34.4,30c-16.6,13.3-60.3,45.1-108.3,53.9c-30.9,5.6-90.9,9.1-120.3,9.1
		c-24.9,0-39.1,17.8-39.2,17.9l-6.6,8.4L86.3,325l11.6-2.2c5.5-1.8,24-21,31.9-29.2c6.9-7.1,10.6-11,12.9-12.7
		c16.3-12.1,35.9-14.8,70.1-9.7c27,4,52,16.5,64,22.5c2.8,1.4,4.8,2.4,6,2.9c5.7,1.7,47.5,2.9,61.3,3.3c4,0.1,7.1,0.2,8.7,0.3
		c5.5,0.2,15.2,2.5,21.1,9.2c2.7-2.5,12.7-9,60.4-30.9c0.5-0.3,1.6-0.9,2.9-1.7c10.2-6,34.1-19.9,45.9-4.1c2.9,3.9,4.1,8.8,3.3,13.6
		C484.7,298.8,471.2,309.7,467.3,312.6z M470.8,282.2c-1.3-1.8-6.4-3-25.6,8.2c-1.7,1-3.1,1.8-4.1,2.3c-24,11-50.6,24-55.8,27.6
		c-0.2,0.3-0.3,0.8-0.6,1.3c-1.6,4-3.8,8.4-9.9,14.8c-0.4,0.7-0.8,1.4-1.3,2c-9.6,15-25.4,18.7-40.1,20.2c-16.2,3-34.4,2.8-51.1,1.4
		c-26.3-1.5-58.8-5-64-5.5c-6.4-0.5-13.4-0.9-13.1-8.7s8.2-7.7,10.8-7.6c7.2,0.1,17.8,0.2,55.2,4.9c4.1,0.5,8,0.9,11.9,1.3
		c12,0.7,22.2,1,27.1,0.4c3.7-0.5,7.8-0.7,11.9-1c2.8-0.2,5.6-0.4,8.4-0.6c11.1-2,19.7-5.5,25.3-10.4c2.5-2.1,4.5-4,6.2-5.7
		c1-2.1,1.8-4.6,0.9-6.3c-1.4-2.7-6.7-4.7-10.8-4.9c-1.5-0.1-4.5-0.1-8.5-0.3c-44.1-1.3-61.5-2.4-66.5-4.4c-1.5-0.6-4-1.8-7.3-3.5
		c-11.3-5.6-34.8-17.4-59.4-21.1c-29.6-4.4-46-2.5-58.5,6.8c-1.4,1-6.5,6.3-11,11c-13.6,14.1-23.1,23.5-30.3,28.7l49.4,73.2
		c12.3-10.6,27.9-16.5,44.1-16.5c28.8,0,87.5-3.4,117.5-8.8c44.5-8.1,85.7-38.1,101.3-50.7c21.8-17.5,33.4-29.1,33.5-29.3l1-0.8
		c5-3.7,12.8-11.4,13.6-16.2C471.4,283.3,471.2,282.6,470.8,282.2z M325.2,256.7c-69.8,0.2-125.6-55.2-125.8-124.8
		C199.3,63.3,254.9,7.2,323.2,7C392,6.7,448,62.2,448.3,131c0,0.3,0,0.5,0,0.8C448.6,199.9,392.8,256.4,325.2,256.7L325.2,256.7z
		 M318.1,145.4c0-2.5-2-4.5-4.5-4.6c0,0,0,0,0,0c-15,0-30-0.1-45-0.1c-5,0-10.1,0-15.1,0.3c-0.8,0-1.7,1-2.4,1.8
		c-1.9,2.3-3.8,4.6-5.5,7c-0.6,0.9-1.5,2.1-1.4,3c0.7,5.3,1.5,10.6,2.7,15.9c2.2,10.4,5.7,20.4,10.3,29.9
		c16.5-4.7,33.2-6.8,50.1-8.1c0.8-0.1,1.6-1,2.3-1.7c2-1.8,3.7-4.1,6-5.3c1.6-0.6,2.6-2.3,2.4-4.1
		C318.1,168.2,318.1,156.8,318.1,145.4z M315.1,131.3V75.9c-20.9-0.3-41.6-2.4-61.9-8c-6.7,12.9-12.9,39.5-12.8,53.8
		c-0.2,1.6,0.7,3.1,2.1,3.7c1.7,1,3.2,2.4,4.4,4c1.1,1.7,2.3,1.8,3.9,1.8c16.2,0,32.3,0.1,48.5,0.2
		C304.4,131.3,309.6,131.3,315.1,131.3z M317.5,242.2c0.1-0.2,0.2-0.4,0.3-0.6c0.1-11.8,0.2-23.6,0.1-35.5c0-0.9-1.2-1.8-2-2.6
		c-2.2-2.3-4.8-4.3-6.6-6.8c-1-1.4-1.6-2.1-3.4-1.9c-12.1,1.6-24.1,3.2-36.2,4.9c-3.1,0.6-6.3,1.3-9.3,2.2
		c5,9.1,11.3,17.5,18.7,24.8C289.7,237.3,302.3,242.9,317.5,242.2z M271,229.2c-5.9-8.2-11.8-16.4-18-25.1l-9.5,3.7
		C251.5,216.4,260.8,223.6,271,229.2z M214.7,149.4c3,18.8,10.8,36.5,22.7,51.4c0.6,0.7,2.1,1.5,2.8,1.2c3.4-1.2,6.8-2.8,10.4-4.3
		c-6.9-15-11.4-30.9-13.3-47.3c-0.2-1-0.9-1.9-1.9-2.3c-3.8-1.5-6.7-4.6-8-8.4c-0.2-0.7-0.9-1.7-1.4-1.7c-4.1-0.1-8.3-0.1-12.8-0.1
		C213.8,142.1,214.1,145.8,214.7,149.4z M213.3,131.1c3.6,0,6.9-0.1,10.1,0c2.9,0.1,5.2-0.2,6.9-3c1-1.4,2.4-2.4,3.9-3
		c1.8-0.7,2.1-1.9,2.2-3.6c0.6-13.3,2.9-26.4,6.8-39.1c1.7-5.5,3.8-10.9,5.7-16.4c-0.2-0.2-0.5-0.4-0.8-0.6
		c-3.2-1.3-6.4-2.5-9.9-3.8C222.2,81.2,213.4,105.7,213.3,131.1z M242.9,56.4l8.8,3.2l14.5-22.4C257.6,42.4,249.8,48.9,242.9,56.4z
		 M315.1,20.4c-7.9,1.5-15.3,2.9-22.7,4.2c-6.4,1.1-11.4,4.6-15.9,9c-6.8,6.5-12.6,13.9-17.4,22c-1.1,1.9-2.1,3.8-3.2,5.7
		c8.7,4.1,50.9,9.3,59.2,7.3L315.1,20.4z M324.9,179.4c0,2.3,0.3,3.9,2.6,5.1c1.5,0.8,2.8,2,3.5,3.6c1,2.1,2.5,2.4,4.5,2.5
		c17.2,0.5,34.3,2.9,51,7.2c3.6,1,3.4-1.3,6-7.5c2.4-5.4,4.3-11.1,5.8-16.9c2.6-10.6,3.6-21,5.1-32.5H387c-12,0-24.1,0-36.2,0
		c-7.6,0-15.2,0.1-22.8,0c-1.7,0-3.1,1.3-3.1,3c0,0,0,0.1,0,0.1C325,155.8,324.9,167.6,324.9,179.4L324.9,179.4z M325.6,130.3h77.9
		c1.5-13.4-4.3-45.4-10.4-57.3c-5.9,2.8-11.1,2.3-15.8-2.3c-0.9-0.6-2-0.8-3-0.6c-10.1,1.3-20.1,2.9-30.3,4
		c-6.9,0.8-13.8,0.8-21,1.3L325.6,130.3z M342.9,22.3c-5.7-0.4-11.4-1.2-17.3-1.8v48.1c3.5,0,6.9,0.3,10.2-0.1
		c11.7-1.2,23.3-2.6,35-4.1c1.1-0.1,2.9-1.2,3-1.9c0.4-5.3,3.2-8.8,7.8-11.3c-0.6-1-1.1-1.7-1.6-2.4c-1.1-1.5-2.2-3.1-3.3-4.6
		C367.9,33.2,358.2,23.4,342.9,22.3L342.9,22.3z M378.2,35.2c3.7,5.2,6.9,9.8,10.2,14.5c0.4,0.5,0.8,1,1.3,1.3
		c2.6,1.8,5.2,3.6,8.3,5.7l5.1-2.4C395.7,46.8,387.3,40.4,378.2,35.2L378.2,35.2z M407.9,58.8c-2.5,1.1-4.5,2.1-6.5,2.9
		c-3.7,1.6-4.4,3.2-2.9,7c5.5,13.7,9.1,28.2,10.5,42.9c0.6,6.2,0.9,12.3,1.3,18.7h24.1C434.1,103,425.1,79.4,407.9,58.8L407.9,58.8z
		 M434.4,140.8h-24.5c-0.9,20.4-5.6,40.5-14.1,59.2l13.1,5.3C424,187.1,432.9,164.5,434.4,140.8L434.4,140.8z M404.1,208
		c-3.2-1.2-5.9-2.2-8.6-3.4c-2.1-0.9-3.2-0.5-4.5,1.6c-3.6,5.8-7.6,11.4-11.6,16.9c-1.9,2.6-4.2,4.8-6.3,7.2
		C384.9,225.1,395.4,217.5,404.1,208L404.1,208z M380,211.3c2-3,3.9-6.1,6-9.5c-16.9-4.4-34.3-6.9-51.8-7.3c-2.9,3.3-4.9,6-7.4,8.1
		c-1.4,1.1-2,2-2,3.8c0,11.2-0.1,22.4-0.1,33.5c0,0.9,0.2,1.8,0.3,3c11-0.8,21.8-0.7,31.3-7.4C365.6,228.9,373.6,220.7,380,211.3z
		 M98.2,493L15.7,372l53.5-34.4l77.3,112L98.2,493z M108,440.3c-6.9,0-12.6,5.5-12.6,12.4s5.5,12.6,12.4,12.6s12.6-5.5,12.6-12.4
		c0,0,0-0.1,0-0.1C120.4,446,114.9,440.4,108,440.3z"/>
</g>
<rect x="527" y="163.8" class="st1" width="1956" height="347.2"/>
<text transform="matrix(1 0 0 1 527 415.7983)"><tspan x="0" y="0" class="st0 st2 st3">Exactly </tspan><tspan x="1232.3" y="0" class="st4 st2 st3">aW</tspan></text>
</svg>
