<svg xmlns="http://www.w3.org/2000/svg" viewBox="0 0 500 500"><defs><style>.cls-1{fill:#29abe2;stroke:#3fa9f5;stroke-miterlimit:10;stroke-width:6px;}</style></defs><title>exactly-icon</title><g id="Layer_2" data-name="Layer 2"><path class="cls-1" d="M467.28,312.56c-2.41,2.38-14,13.69-34.41,30-16.56,13.29-60.29,45.12-108.26,53.87-30.89,5.63-90.91,9.07-120.33,9.07-24.91,0-39.07,17.75-39.2,17.93l-6.6,8.43L86.34,325l11.59-2.16c5.49-1.8,24-21,31.91-29.23,6.9-7.15,10.61-11,12.95-12.71,16.3-12.09,35.93-14.8,70.09-9.66,27,4.05,52,16.54,64,22.55,2.75,1.38,4.82,2.43,6,2.92,5.71,1.7,47.53,2.91,61.28,3.31,4,.11,7.09.2,8.68.27,5.51.22,15.18,2.48,21.14,9.16,2.72-2.53,12.72-9,60.42-30.87.49-.26,1.59-.91,2.94-1.68,10.19-6,34.11-19.91,45.92-4.1a17.75,17.75,0,0,1,3.33,13.6C484.74,298.78,471.16,309.67,467.28,312.56Zm3.55-30.4c-1.31-1.76-6.36-3-25.61,8.24-1.72,1-3.09,1.8-4.06,2.28-24,11-50.6,23.95-55.81,27.6-.16.34-.33.79-.57,1.3-1.62,4-3.84,8.38-9.91,14.83-.39.67-.81,1.36-1.27,2-9.65,15-25.38,18.74-40.1,20.18-16.2,3-34.43,2.83-51.09,1.4-26.29-1.51-58.82-5-64-5.52-6.42-.45-13.37-.93-13.06-8.71s8.18-7.66,10.84-7.62c7.2.07,17.82.16,55.17,4.91q6.09.78,11.9,1.27c12,.71,22.17,1,27.09.36,3.72-.45,7.76-.72,11.94-1,2.82-.18,5.64-.35,8.41-.59,11.06-2.05,19.66-5.55,25.29-10.4,2.47-2.14,4.5-4,6.16-5.7,1-2.14,1.78-4.62.92-6.31-1.41-2.69-6.72-4.69-10.84-4.86-1.53-.06-4.53-.14-8.48-.26-44.08-1.28-61.47-2.42-66.48-4.38-1.47-.58-4-1.8-7.34-3.49-11.29-5.64-34.81-17.39-59.35-21.07-29.57-4.43-46-2.54-58.53,6.77-1.42,1-6.52,6.34-11,11-13.57,14.07-23.12,23.46-30.3,28.7l49.4,73.21a67.83,67.83,0,0,1,44.14-16.55c28.83,0,87.49-3.36,117.54-8.83,44.5-8.1,85.68-38.15,101.33-50.69,21.77-17.45,33.42-29.15,33.53-29.27l1-.84c5-3.67,12.83-11.36,13.58-16.24A2.12,2.12,0,0,0,470.83,282.16Zm-145.6-25.5c-69.75.24-125.59-55.17-125.76-124.78C199.29,63.33,254.9,7.19,323.18,7A124.57,124.57,0,0,1,448.34,131.73C448.57,199.9,392.84,256.44,325.23,256.66Zm-7.08-111.25a4.53,4.53,0,0,0-4.54-4.56c-15,0-30-.06-44.95-.06-5,0-10.06,0-15.09.26-.82,0-1.71,1-2.37,1.81-1.88,2.28-3.75,4.63-5.53,7-.64.88-1.52,2.06-1.4,3,.74,5.32,1.53,10.65,2.67,15.9a128.94,128.94,0,0,0,10.34,29.94c16.49-4.7,33.22-6.84,50.11-8.06.8-.07,1.58-1,2.3-1.67,2-1.8,3.73-4.08,6-5.33a3.89,3.89,0,0,0,2.43-4.07C318.06,168.2,318.11,156.79,318.15,145.41Zm-3.08-14.11V75.86c-20.93-.35-41.57-2.42-61.93-8-6.71,12.92-12.94,39.5-12.79,53.78a3.66,3.66,0,0,0,2.07,3.73,13.2,13.2,0,0,1,4.37,4c1.09,1.66,2.29,1.77,3.92,1.77,16.17,0,32.3.13,48.46.18C304.38,131.32,309.59,131.3,315.07,131.3Zm2.46,110.92a2.64,2.64,0,0,0,.27-.63c.07-11.82.16-23.65.09-35.47,0-.88-1.21-1.82-2-2.61-2.22-2.28-4.78-4.29-6.62-6.83-1-1.38-1.64-2.09-3.35-1.85-12.06,1.65-24.15,3.17-36.18,4.91a95.5,95.5,0,0,0-9.33,2.22,106.48,106.48,0,0,0,18.72,24.81C289.74,237.32,302.26,242.94,317.53,242.22Zm-46.48-13c-5.87-8.16-11.81-16.39-18-25.06l-9.53,3.73A109.24,109.24,0,0,0,271.05,229.22Zm-56.37-79.8a109.08,109.08,0,0,0,22.71,51.39c.58.73,2.05,1.48,2.75,1.24,3.45-1.2,6.77-2.76,10.43-4.3a157.45,157.45,0,0,1-13.28-47.26,3.47,3.47,0,0,0-1.9-2.33,13.58,13.58,0,0,1-8-8.41c-.23-.68-.86-1.7-1.35-1.73-4.14-.13-8.27-.07-12.8-.07C213.78,142.12,214.09,145.79,214.68,149.42Zm-1.42-18.36c3.61,0,6.86-.13,10.07,0,2.87.14,5.21-.16,6.88-3a8.15,8.15,0,0,1,3.95-3c1.81-.73,2.14-1.86,2.23-3.59a158.45,158.45,0,0,1,6.78-39.14c1.72-5.51,3.81-10.9,5.74-16.37a2.83,2.83,0,0,0-.8-.57c-3.22-1.25-6.43-2.47-9.89-3.78A110.93,110.93,0,0,0,213.26,131.06Zm29.68-74.7,8.77,3.15,14.5-22.36A109.49,109.49,0,0,0,242.94,56.36Zm72.13-36c-7.9,1.47-15.28,2.91-22.67,4.18-6.42,1.1-11.35,4.59-15.92,9a103.28,103.28,0,0,0-17.38,22c-1.12,1.86-2.15,3.78-3.24,5.7,8.67,4.12,50.9,9.27,59.21,7.27Zm9.78,159c0,2.26.27,3.94,2.6,5.07A8.39,8.39,0,0,1,331,188c1,2.08,2.51,2.39,4.55,2.46a229.47,229.47,0,0,1,51,7.23c3.61,1,3.39-1.34,6-7.49a108,108,0,0,0,5.75-16.85c2.56-10.63,3.58-21,5.15-32.49H387q-18.07,0-36.18,0c-7.61,0-15.22.08-22.82,0a3.09,3.09,0,0,0-3.14,3.13Q325,161.66,324.85,179.39Zm.73-49.11h77.88c1.51-13.43-4.29-45.39-10.4-57.29-5.91,2.76-11.09,2.27-15.81-2.25a4.13,4.13,0,0,0-3.05-.57c-10.08,1.3-20.13,2.86-30.25,4-6.87.79-13.8.77-21,1.31Zm17.35-107.9c-5.69-.4-11.36-1.18-17.29-1.81V68.62c3.54,0,6.9.28,10.19-.05,11.68-1.21,23.34-2.6,35-4.06,1.09-.13,2.89-1.18,2.95-1.93.43-5.25,3.18-8.77,7.82-11.32-.65-1-1.11-1.69-1.58-2.38-1.1-1.54-2.17-3.12-3.34-4.6C367.86,33.22,358.24,23.44,342.93,22.38Zm35.23,12.85c3.67,5.21,6.91,9.85,10.19,14.47A5.78,5.78,0,0,0,389.64,51c2.62,1.82,5.23,3.6,8.32,5.71l5.12-2.38A111.7,111.7,0,0,0,378.16,35.23Zm29.7,23.57c-2.48,1.12-4.46,2.06-6.48,2.92-3.73,1.58-4.41,3.21-2.87,7A153.26,153.26,0,0,1,409,111.58c.57,6.16.9,12.35,1.33,18.7h24.15C434.1,103,425.06,79.37,407.86,58.8Zm26.49,82.05H409.84A159.39,159.39,0,0,1,395.74,200l13.09,5.31A111.08,111.08,0,0,0,434.35,140.85Zm-30.24,67.2c-3.17-1.21-5.94-2.17-8.6-3.36-2.12-.95-3.17-.47-4.47,1.58-3.65,5.78-7.57,11.39-11.56,16.94-1.88,2.58-4.21,4.83-6.32,7.24A96.45,96.45,0,0,0,404.11,208.05ZM380,211.29c2-3,3.86-6.12,6-9.47a226.48,226.48,0,0,0-51.77-7.29c-2.93,3.27-4.88,6-7.37,8.06-1.39,1.14-2,2-2,3.78,0,11.18-.08,22.36-.1,33.54,0,.9.17,1.81.27,3,11-.75,21.82-.73,31.26-7.44A94.56,94.56,0,0,0,380,211.29ZM98.19,493,15.67,372l53.52-34.36,77.3,112ZM108,440.34a12.52,12.52,0,1,0,12.45,12.51A12.52,12.52,0,0,0,108,440.34Z"/></g></svg>